# xmcd CD database file
#
# Track frame offsets:
#	150
#	10525
#	19167
#	27592
#	38307
#	50537
#	59015
#	69775
#	79797
#	86342
#	96992
#	108245
#	118927
#	128877
#
# Disc length: 1852 seconds
#
# Revision: 2
# Processed by: cddbd v1.5.2PL0 Copyright (c) Steve Scherf et al.
# Submitted via: CDex 1.70beta2
#
DISCID=ab073a0e
DTITLE=Waylon Jennings - THIS IS COUNTRY CD 1
DYEAR=2004
DGENRE=Country
TTITLE0=Burning memories
TTITLE1=Abilene
TTITLE2=Love's gonna live here
TTITLE3=Money (that's what I want)
TTITLE4=Don't think twice (it's alright)
TTITLE5=Jole Blon
TTITLE6=Sally was a good old girl
TTITLE7=Lorena
TTITLE8=It's so easy
TTITLE9=Dream baby
TTITLE10=Crying
TTITLE11=Big mamou
TTITLE12=White lioghtning
TTITLE13=When sin stops (love begins)
EXTD=YEAR: 2004
EXTT0=
EXTT1=
EXTT2=
EXTT3=
EXTT4=
EXTT5=
EXTT6=
EXTT7=
EXTT8=
EXTT9=
EXTT10=
EXTT11=
EXTT12=
EXTT13=
PLAYORDER=
